<svg width="342.7666931152344" height="62.63497223242911" viewBox="0 0 369.969696969697 67.6058735051794" class="css-1j8o68f" xmlns="http://www.w3.org/2000/svg"><defs id="SvgjsDefs1273"><linearGradient id="SvgjsLinearGradient1278"><stop id="SvgjsStop1279" stop-color="#7d141d" offset="0"></stop><stop id="SvgjsStop1280" stop-color="#ff1e27" offset="1"></stop></linearGradient></defs><g id="SvgjsG1274" featurekey="symbolFeature-0" transform="matrix(0.726442507264425,0,0,0.726442507264425,-9.806973848069738,-5.858032932811973)" fill="url(#SvgjsLinearGradient1278)"><rect x="30" y="31.3" width="40" height="51"></rect><path xmlns="http://www.w3.org/2000/svg" d="M13.5,76.3v-39c0-3.3,2.7-6,6-6H27v51h-7.5C16.2,82.3,13.5,79.7,13.5,76.3z"></path><path xmlns="http://www.w3.org/2000/svg" d="M86.5,76.3c0,3.3-2.7,6-6,6H73v-51h7.5c3.3,0,6,2.7,6,6V76.3z"></path><path xmlns="http://www.w3.org/2000/svg" d="M58.5,17.7H41.6c-2.2,0-3.8,1.9-3.8,4.3v7.3h4v-5.5c0-1.8,1.2-3.2,2.9-3.2h10.8c1.6,0,2.9,1.4,2.9,3.2v5.5h4V22  C62.3,19.6,60.7,17.7,58.5,17.7z"></path></g><g id="SvgjsG1275" featurekey="nameFeature-0" transform="matrix(1.4764048216833388,0,0,1.4764048216833388,77.48827165760399,-17.67127214919121)" fill="#111111"><path d="M37.8 17.44 c0.68 0.28 -0.16 0.96 -0.44 0.84 l-0.04 0 c-4.28 -1.84 -16.52 -2.16 -26.2 -1.8 c-4.48 8.2 -10.64 19.6 -10.36 26.12 c0.04 0.28 0.12 0.56 0.28 0.64 c1.52 0.76 4.36 -5.04 5.4 -6.64 c0 0 0.36 -0.96 0.88 -0.52 c0.36 0.32 -0.12 0.6 -0.12 0.6 c-0.52 0.6 -4.2 7.52 -5.92 7.4 c-1.6 -0.12 -1.64 -1.48 -1.64 -1.48 c-0.24 -6.76 5.56 -17.56 10 -26 c-6.64 0.28 -11.92 0.92 -12.04 0.96 c0 0 -0.64 -0.28 -0.64 -0.72 c0 -0.6 0.76 -0.8 0.76 -0.8 c0.56 0 5.96 -0.36 12.64 -0.52 c1.04 -2 1.6 -2.88 1.72 -3.12 c0 0 0.52 -0.64 1.2 -0.36 c0.52 0.24 0.32 0.92 0.32 0.92 c0 0.04 -0.72 0.72 -1.72 2.52 c9.56 -0.2 21.48 0.04 25.92 1.96 z M21.642 34.36 c0.32 0.32 -0.16 0.6 -0.16 0.6 c-0.36 0.48 -2.92 3.04 -5.32 4.44 c-1.24 0.64 -1.88 0.32 -1.96 0.12 c-0.32 -0.56 0.04 -1.52 0.84 -3.6 c0.2 -0.52 0.48 -1.2 0.6 -1.64 c-0.32 -0.08 -0.88 -0.28 -1.16 -0.44 c-1.72 3.36 -4.48 8.28 -4.64 8.56 c0 0 0.08 0.88 -0.48 0.56 c-0.56 -0.28 0 -0.96 0 -0.96 c1.04 -1.84 3.04 -5.96 4.4 -8.68 c-0.8 -0.6 -1.16 -1.32 -1.08 -2.2 c0.08 -0.8 0.6 -1.52 1.32 -1.8 c0.6 -0.24 1.24 -0.16 1.64 0.2 c0.24 0.24 0.6 0.72 0.36 1.64 c-0.08 0.36 -0.36 0.96 -0.72 1.72 c0.28 0.16 1.44 0.64 1.52 0.8 c0.2 0.44 -0.04 1.04 -0.68 2.68 c-0.24 0.6 -0.68 2 -0.84 2.6 c1.24 -0.12 4.96 -3.48 5.44 -4.08 c0 0 0.36 -0.96 0.92 -0.52 z M14.882 30.84 c0.08 -0.24 0.04 -0.4 0 -0.44 s-0.12 -0.04 -0.2 -0.04 s-0.16 0 -0.24 0.04 c-0.12 0.04 -0.56 0.24 -0.64 0.84 c0 0.28 0.08 0.64 0.48 1.04 c0.32 -0.64 0.52 -1.16 0.6 -1.44 z M35.684 36.04 c0 0 0.32 -0.16 0.48 0 c0.16 0.2 0 0.44 0 0.44 c-1.04 1.24 -4 3.6 -5.6 3.6 c-0.52 0 -0.84 -0.2 -0.96 -0.4 c-0.36 -0.4 -0.56 -1.16 0.44 -3.68 c-3 3.48 -3.96 3.16 -4.32 3.08 c-0.24 -0.08 -0.68 -0.36 -0.76 -1.16 l0 -0.04 c-0.08 -1.68 4.32 -6.32 5.16 -6.24 c0 0 0.6 0.16 0.56 0.44 c0 0.52 -0.52 0.72 -0.72 0.68 c-0.76 -0.36 -3.92 3.76 -3.84 5.08 l0 0.12 c0.48 -0.12 1.88 -1.2 4.08 -3.96 c0.64 -0.84 1.16 -1.44 1.44 -1.8 c0.36 -0.4 0.68 -0.8 1.12 -0.44 c0.16 0.12 0.36 0.4 0.12 0.8 c-1.52 2.88 -2.6 5.76 -2.4 6.36 c0.16 0.6 1.2 0.28 2.56 -0.64 c1 -0.68 2.08 -1.6 2.64 -2.24 z M51.04599999999999 33.76 c0 0 1.08 -0.36 1.08 0.24 c0 0.64 -1.08 0.56 -1.08 0.56 c-1 -0.04 -2.04 -0.28 -3.04 -0.6 l-0.24 0 c-0.76 0.92 -1.48 1.72 -1.84 2.12 c-0.92 0.96 -1.84 1.88 -2.6 2.52 c-1.16 0.96 -2.2 1.56 -2.52 1.56 l-0.08 0 c-0.4 -0.04 -0.6 -0.44 -0.6 -0.84 c-0.04 -1.56 2.68 -7.36 2.92 -7.96 c0 0 0.24 -0.36 0.52 -0.32 c0.28 0.08 0.32 0.4 0.32 0.4 c-0.72 1.92 -2.24 5.72 -2.52 7.24 c1.12 -0.8 3.92 -3.52 5.56 -5.56 c-0.52 -0.76 -0.56 -1.64 -0.12 -2.52 c0.48 -0.96 1.6 -1.84 2.44 -1.52 c0.2 0.08 0.84 0.4 0.56 1.48 c-0.16 0.68 -0.72 1.6 -1.36 2.48 c-0.04 0.12 0.04 0.24 0.24 0.36 c0.84 0.2 1.6 0.32 2.36 0.36 z M47.72599999999999 31.36 c-0.08 0.28 -0.08 0.52 -0.04 0.76 c0.52 -0.76 0.92 -1.36 1 -1.8 c0 -0.04 0.04 -0.08 0.04 -0.08 c-0.32 0.12 -0.8 0.52 -1 1.12 z M65.80799999999999 34.2 c0.36 0.28 -0.16 0.6 -0.16 0.6 c-0.32 0.36 -4.8 5.48 -8.16 5.16 c-0.12 0 -0.24 -0.04 -0.36 -0.04 c-0.4 -0.08 -0.92 -0.36 -1.24 -1.12 c-0.88 -2.24 0.56 -4.6 2.28 -5.88 c1.08 -0.8 2.04 -1 2.6 -0.52 c0.28 0.2 0.44 0.52 0.4 0.88 c-0.04 1.2 -2.24 2.8 -2.92 3.24 c0 0 -0.28 0.08 -0.6 -0.24 c-0.32 -0.36 -0.04 -0.72 -0.04 -0.72 c1.2 -0.8 2.28 -1.84 2.4 -2.28 c-0.24 0 -0.96 0.28 -1.8 1.12 c-0.96 1 -1.8 2.56 -1.24 3.96 c0.56 1.08 2.04 0.52 3.24 0.04 c1.28 -0.48 4.04 -2.92 4.68 -3.68 c0 0 0.4 -1 0.92 -0.52 z M80.28999999999999 16.48 c-4.48 8.2 -10.64 19.6 -10.36 26.12 c0.04 0.28 0.12 0.56 0.28 0.64 c1.52 0.76 4.36 -5.04 5.4 -6.64 c0 0 0.36 -0.96 0.88 -0.52 c0.36 0.32 -0.12 0.6 -0.12 0.6 c-0.52 0.6 -4.2 7.52 -5.92 7.4 c-1.6 -0.12 -1.64 -1.48 -1.64 -1.48 c-0.16 -7.96 7.48 -21.44 12.44 -30.2 c0 0 0.52 -0.64 1.2 -0.36 c0.52 0.24 0.32 0.92 0.32 0.92 c0 0.04 -0.72 0.72 -2.48 3.52 z M106.01399999999998 35.64 c0.08 0.56 -0.76 0.44 -0.76 0.44 c-0.44 0.08 -0.92 0.36 -1.32 0.52 c-1.4 0.48 -2.52 1.48 -3.72 2.4 c-2.72 7.04 -6.72 16.64 -9.16 18.4 c-0.36 0.24 -0.68 0.36 -0.92 0.36 c-0.2 0 -0.36 -0.08 -0.52 -0.16 c-0.52 -0.32 -0.68 -1.12 -0.48 -2.52 c0.6 -3.6 4.2 -12.08 10.12 -16.8 c0.84 -2.24 1.6 -4.32 2.2 -6 c-1.6 1.44 -3.08 3.24 -3.4 3.6 c-0.08 0.12 -0.4 0.68 -0.76 0.68 c-0.4 0 -0.36 -0.28 -0.2 -0.44 c0.68 -0.8 4.12 -5.24 5.6 -5.6 c0.36 -0.08 0.36 0.72 0.36 0.72 c-0.12 0.32 -1.04 2.92 -2.24 6.12 c0.88 -0.56 1.88 -1.12 2.84 -1.48 c0.44 -0.16 0.96 -0.28 1.48 -0.4 c0 0 0.8 -0.4 0.88 0.16 z M90.37399999999998 56.44 c1.92 -1.36 5.24 -8.88 7.96 -15.8 c-3.12 3.08 -5.52 7.24 -6.96 10.84 c-1.12 2.92 -1.24 4.6 -1.12 5.08 c0 -0.04 0.08 -0.04 0.12 -0.12 z M103.89399999999998 28.2 c0.08 0.4 0.12 0.72 -0.24 0.8 c-0.36 0.04 -0.68 -0.28 -0.76 -0.68 c-0.04 -0.4 0.2 -0.8 0.52 -0.84 c0.36 -0.04 0.56 0.28 0.48 0.72 z M121.13599999999998 33.24 c0.04 0.48 -0.56 0.36 -0.56 0.36 c-0.28 0.04 -1.24 0.08 -2.52 0.04 c-0.52 0 -1 0 -1.16 0.04 c0.04 0.96 -0.32 2.08 -0.88 3.12 c-0.92 1.6 -2.4 3.04 -3.84 3.04 c-0.36 0 -0.72 -0.08 -1.08 -0.28 c-0.56 -0.32 -0.88 -0.8 -1 -1.4 c-0.4 -2.4 3.92 -7.12 4.32 -7.56 c0 0 0.48 -0.48 0.8 -0.28 c0.52 0.36 0.08 0.88 0.08 0.88 c-1.44 1.56 -4.28 5.4 -4.08 6.76 c0.04 0.28 0.16 0.72 0.4 0.84 c1.04 0.56 2.52 -1.04 3.36 -2.56 c0.52 -0.88 0.8 -1.88 0.76 -2.6 c-0.52 -0.12 -0.84 -0.32 -0.96 -0.64 c-0.2 -0.44 0.08 -0.92 0.4 -1.2 l0.32 -0.24 l0.36 0.2 c0.32 0.2 0.56 0.44 0.76 0.76 c0.2 0.24 0.48 0.36 0.76 0.44 c1.08 0.12 2.08 0.12 2.72 0.04 c0 0 0.96 -0.44 1.04 0.24 z M135.09799999999998 36.36 c0 0 0.2 -0.2 0.48 -0.08 c0.32 0.16 0 0.52 0 0.52 c-1 1.24 -4 3.6 -5.6 3.6 l0 0 c-0.52 0 -0.8 -0.2 -0.96 -0.4 c-0.32 -0.4 -0.52 -1.16 0.44 -3.68 c-3 3.48 -3.96 3.16 -4.28 3.08 c-0.24 -0.08 -0.72 -0.32 -0.76 -1.16 l0 -0.04 c-0.12 -1.68 2.28 -6.52 3.08 -6.48 c0 0 0.6 0.2 0.6 0.48 c-0.04 0.52 -0.36 0.92 -0.6 0.88 c-0.72 -0.4 -2 3.76 -1.96 5.08 c0 0.04 0.04 0.08 0.04 0.12 c0.48 -0.12 1.88 -1.2 4.04 -3.96 c0.68 -0.84 1.16 -1.44 1.48 -1.8 c0.32 -0.4 0.64 -0.8 1.08 -0.44 c0.16 0.12 0.36 0.44 0.12 0.8 c-1.48 2.88 -2.56 5.76 -2.4 6.36 c0.2 0.6 1.24 0.28 2.6 -0.64 c1 -0.68 2.08 -1.6 2.6 -2.24 z M150.05999999999997 34.36 c0.32 0.32 -0.16 0.6 -0.16 0.6 c-0.36 0.48 -2.92 3.04 -5.32 4.44 c-1.24 0.64 -1.88 0.32 -1.96 0.12 c-0.32 -0.56 0.04 -1.52 0.84 -3.6 c0.2 -0.52 0.48 -1.2 0.6 -1.64 c-0.32 -0.08 -0.88 -0.28 -1.16 -0.44 c-1.72 3.36 -4.48 8.28 -4.64 8.56 c0 0 0.08 0.88 -0.48 0.56 c-0.56 -0.28 0 -0.96 0 -0.96 c1.04 -1.84 3.04 -5.96 4.4 -8.68 c-0.8 -0.6 -1.16 -1.32 -1.08 -2.2 c0.08 -0.8 0.6 -1.52 1.32 -1.8 c0.6 -0.24 1.24 -0.16 1.64 0.2 c0.24 0.24 0.6 0.72 0.36 1.64 c-0.08 0.36 -0.36 0.96 -0.72 1.72 c0.28 0.16 1.44 0.64 1.52 0.8 c0.2 0.44 -0.04 1.04 -0.68 2.68 c-0.24 0.6 -0.68 2 -0.84 2.6 c1.24 -0.12 4.96 -3.48 5.44 -4.08 c0 0 0.36 -0.96 0.92 -0.52 z M143.29999999999998 30.84 c0.08 -0.24 0.04 -0.4 0 -0.44 s-0.12 -0.04 -0.2 -0.04 s-0.16 0 -0.24 0.04 c-0.12 0.04 -0.56 0.24 -0.64 0.84 c0 0.28 0.08 0.64 0.48 1.04 c0.32 -0.64 0.52 -1.16 0.6 -1.44 z M164.54199999999997 35.519999999999996 c0.24 -0.52 0.8 -0.36 0.72 -0.16 c-1.88 4.48 -6.16 8.2 -7.36 8.2 c-0.12 0 -0.2 -0.04 -0.24 -0.04 c-0.2 -0.04 -0.64 -0.24 -0.64 -0.96 c-0.04 -1.04 0.76 -2.56 1.64 -4.28 c0.52 -1.08 1.04 -2.2 1.32 -3.08 c0.32 -0.88 0.24 -1.36 0.2 -1.48 c-1.12 -0.32 -2.88 2.52 -3.8 4.08 c-0.96 1.56 -1.36 2.2 -2 2.08 c-0.16 0 -0.48 -0.12 -0.6 -0.68 c-0.4 -1.88 1.8 -5.56 2 -5.96 c0 0 0.28 -0.96 1.2 -0.32 c0.44 0.28 -0.36 0.84 -0.36 0.84 c-0.6 1.04 -1.4 2.84 -1.64 4.12 c0.12 -0.24 0.28 -0.48 0.4 -0.68 c1.4 -2.32 3.32 -5.44 5.36 -4.48 l0.08 0.04 l0.08 0.04 c1.12 0.96 0.04 3.2 -1.2 5.8 c-0.64 1.28 -1.32 2.72 -1.48 3.6 c1.2 0.16 4.48 -2.88 6.32 -6.68 z M179.90399999999997 36.04 c0 0 0.32 -0.16 0.48 0 c0.16 0.2 0 0.44 0 0.44 c-1.04 1.24 -4 3.6 -5.6 3.6 c-0.52 0 -0.84 -0.2 -0.96 -0.4 c-0.36 -0.4 -0.56 -1.16 0.44 -3.68 c-3 3.48 -3.96 3.16 -4.32 3.08 c-0.24 -0.08 -0.68 -0.36 -0.76 -1.16 l0 -0.04 c-0.08 -1.68 4.32 -6.32 5.16 -6.24 c0 0 0.6 0.16 0.56 0.44 c0 0.52 -0.52 0.72 -0.72 0.68 c-0.76 -0.36 -3.92 3.76 -3.84 5.08 l0 0.12 c0.48 -0.12 1.88 -1.2 4.08 -3.96 c0.64 -0.84 1.16 -1.44 1.44 -1.8 c0.36 -0.4 0.68 -0.8 1.12 -0.44 c0.16 0.12 0.36 0.4 0.12 0.8 c-1.52 2.88 -2.6 5.76 -2.4 6.36 c0.16 0.6 1.2 0.28 2.56 -0.64 c1 -0.68 2.08 -1.6 2.64 -2.24 z M195.58599999999998 16.48 c-4.48 8.2 -10.64 19.6 -10.36 26.12 c0.04 0.28 0.12 0.56 0.28 0.64 c1.52 0.76 4.36 -5.04 5.4 -6.64 c0 0 0.36 -0.96 0.88 -0.52 c0.36 0.32 -0.12 0.6 -0.12 0.6 c-0.52 0.6 -4.2 7.52 -5.92 7.4 c-1.6 -0.12 -1.64 -1.48 -1.64 -1.48 c-0.16 -7.96 7.48 -21.44 12.44 -30.2 c0 0 0.52 -0.64 1.2 -0.36 c0.52 0.24 0.32 0.92 0.32 0.92 c0 0.04 -0.72 0.72 -2.48 3.52 z"></path></g></svg>